<?xml version="1.0" encoding="UTF-8"?>
<svg xmlns="http://www.w3.org/2000/svg" width="2200" height="700" viewBox="0 0 2200 700" role="img" aria-label="Gavel wordmark logo on light background">
  <rect width="2200" height="700" fill="#FFFFFF"/>
  <g transform="translate(40,20) scale(0.52)">
    <path d="M 513 636 L 502 647 L 503 655 L 576 734 L 584 734 L 596 722 L 593 713 L 523 637 Z M 743 584 L 743 663 L 877 665 L 877 780 L 838 803 L 843 811 L 896 866 L 955 831 L 956 584 Z M 535 634 L 562 672 L 597 703 L 624 680 L 627 680 L 822 910 L 878 876 L 670 658 L 662 645 L 687 619 L 661 583 L 627 554 L 620 556 Z M 637 521 L 626 533 L 628 541 L 700 616 L 707 615 L 717 606 L 717 597 L 646 521 Z M 626 214 L 298 408 L 298 830 L 628 1024 L 803 920 L 749 856 L 625 928 L 377 779 L 377 458 L 625 310 L 641 317 L 877 458 L 959 409 Z" fill="#0B2A5B" fill-rule="evenodd"/>
    <path d="M 627 353 L 415 479 L 415 757 L 626 883 L 672 856 L 460 728 L 460 508 L 625 409 L 629 409 L 791 509 L 841 481 Z" fill="#8F989F" fill-rule="evenodd"/>
  </g>
  <text x="660" y="445" fill="#0B2A5B" font-family="Inter, Arial, Helvetica, sans-serif" font-size="300" font-weight="700" letter-spacing="0">Gavel</text>
</svg>
